<svg width="394" height="394" viewBox="0 0 394 394" fill="none" xmlns="http://www.w3.org/2000/svg">
<path d="M169.479 24.2408L167.529 36.9867H195.399L193.75 24.2408H169.479Z" fill="#808369" stroke="#2F2521" stroke-width="3" stroke-linecap="round" stroke-linejoin="round"/>
<path d="M195.399 36.9868V69.7922L191.504 67.6941L188.357 69.7922L183.412 66.1969L178.167 69.7922L174.424 66.6451L167.529 71.2894V36.9868" fill="#808369"/>
<path d="M195.399 36.9868V69.7922L191.504 67.6941L188.357 69.7922L183.412 66.1969L178.167 69.7922L174.424 66.6451L167.529 71.2894V36.9868" stroke="#2F2521" stroke-width="3" stroke-linecap="round" stroke-linejoin="round"/>
<path d="M181.461 24.9106V36.9867" stroke="#2F2521" stroke-width="3" stroke-linecap="round" stroke-linejoin="round"/>
<path d="M103.07 153.596L115.21 154.064V148.666L103.07 153.596Z" fill="#808369" stroke="#2F2521" stroke-width="3" stroke-linecap="round" stroke-linejoin="round"/>
<path d="M249.949 165.273L311.29 169.957V222.354L313.55 221.738L315.387 225.659L318.938 224.314L322.858 227.496L325.922 223.698L328.246 224.191V161.112L249.949 156.211" fill="#808369"/>
<path d="M249.949 165.273L311.29 169.957V222.354L313.55 221.738L315.387 225.659L318.938 224.314L322.858 227.496L325.922 223.698L328.246 224.191V161.112L249.949 156.211" stroke="#2F2521" stroke-width="3" stroke-linecap="round" stroke-linejoin="round"/>
<path d="M249.21 160.008L320.164 165.273" stroke="#2F2521" stroke-width="3" stroke-linecap="round" stroke-linejoin="round"/>
<path d="M149.228 207.899L79.6719 236.622L104.085 240.148L172.68 210.14L149.228 207.899Z" fill="#808369" stroke="#2F2521" stroke-width="3" stroke-linecap="round" stroke-linejoin="round"/>
<path d="M78.0366 236.385L78.7261 281.518L84.1535 275.854L88.2855 280.577L91.9448 279.277L96.1951 283.291L99.2634 281.518L103.277 285.064L102.804 240.148L78.0366 236.385Z" fill="#808369" stroke="#2F2521" stroke-width="3" stroke-linecap="round" stroke-linejoin="round"/>
<path d="M92.063 238.316L158.541 208.79" stroke="#2F2521" stroke-width="3" stroke-linecap="round" stroke-linejoin="round"/>
<path d="M40.2866 357.063L153.867 378.422V247.334L38.8042 230.726L40.2866 357.063Z" stroke="#2F2521" stroke-width="3" stroke-linecap="round" stroke-linejoin="round"/>
<path d="M153.867 378.422L219.207 342.578L220.02 216.725L153.867 247.333" stroke="#2F2521" stroke-width="3" stroke-linecap="round" stroke-linejoin="round"/>
<path d="M220.02 216.725L108.587 201.231L38.8042 230.726" stroke="#2F2521" stroke-width="3" stroke-linecap="round" stroke-linejoin="round"/>
<path d="M220.02 327.926L287.65 335.949V181.422L70.0386 164.559L70.6099 216.725" stroke="#2F2521" stroke-width="3" stroke-linecap="round" stroke-linejoin="round"/>
<path d="M287.65 335.949L344.563 299.617L345.277 153.478L287.65 181.422" stroke="#2F2521" stroke-width="3" stroke-linecap="round" stroke-linejoin="round"/>
<path d="M116.871 167.317H249.166L249.949 36.9868H116.871V167.317Z" stroke="#2F2521" stroke-width="3" stroke-linecap="round" stroke-linejoin="round"/>
<path d="M116.871 36.9868L123.352 23.64H243.67L249.949 36.9868" stroke="#2F2521" stroke-width="3" stroke-linecap="round" stroke-linejoin="round"/>
<path d="M70.0386 164.559L116.87 148.08" stroke="#2F2521" stroke-width="3" stroke-linecap="round" stroke-linejoin="round"/>
<path d="M249.949 147.297L345.277 153.478" stroke="#2F2521" stroke-width="3" stroke-linecap="round" stroke-linejoin="round"/>
</svg>
