<svg width="957" height="871" viewBox="0 0 957 871" fill="none" xmlns="http://www.w3.org/2000/svg">
<path d="M486.357 91.8201C686.035 91.8201 847.857 250.641 847.857 446.496C847.857 642.351 686.035 801.171 486.357 801.171C286.679 801.171 124.857 642.351 124.857 446.496C124.857 250.641 286.679 91.8201 486.357 91.8201Z" stroke="#2F2521" stroke-width="3"/>
<ellipse cx="486.357" cy="104.85" rx="104.5" ry="104.85" fill="#F0EADE"/>
<path d="M496.67 63.1631V146.776H477.217V80.0381H470.244V63.1631H496.67Z" fill="#DAD0BD"/>
<ellipse cx="822.643" cy="362.458" rx="104.5" ry="104.85" fill="#F0EADE"/>
<ellipse cx="695.357" cy="754.369" rx="104.5" ry="104.85" fill="#F0EADE"/>
<ellipse cx="269.5" cy="766.15" rx="104.5" ry="104.85" fill="#F0EADE"/>
<ellipse cx="139.857" cy="342.038" rx="104.5" ry="104.85" fill="#F0EADE"/>
<path d="M821.296 386.983H853.581V404.385H794.753V388.565L809.167 375.323C812.253 372.51 814.909 369.893 817.135 367.471C819.401 365.01 821.257 362.686 822.702 360.498C824.186 358.272 825.28 356.143 825.983 354.112C826.686 352.08 827.038 350.069 827.038 348.076C827.038 344.444 826.061 341.748 824.108 339.99C822.194 338.194 819.577 337.295 816.257 337.295C810.553 337.295 804.577 339.737 798.327 344.619L789.01 330.205C797.643 322.627 807.878 318.877 819.714 318.955C828.034 318.955 834.792 321.143 839.987 325.518C845.182 329.893 847.78 336.26 847.78 344.619C847.78 352.002 846.003 358.604 842.448 364.424C838.854 370.323 833.796 376.123 827.272 381.826L821.296 386.983Z" fill="#DAD0BD"/>
<path d="M711.788 753.347C713.975 754.167 715.948 755.241 717.706 756.569C719.464 757.858 720.967 759.382 722.217 761.14C723.507 762.858 724.483 764.811 725.147 766.999C725.85 769.147 726.202 771.511 726.202 774.089C726.202 782.175 723.428 788.21 717.882 792.194C712.335 796.218 704.835 798.229 695.382 798.229C683.389 798.229 673.311 794.655 665.147 787.507L674.112 772.038C677.237 774.694 680.186 776.608 682.96 777.78C685.655 778.991 689.112 779.597 693.331 779.597C696.925 779.597 699.815 778.815 702.003 777.253C704.229 775.69 705.342 773.268 705.342 769.987C705.342 766.745 704.132 764.323 701.71 762.722C699.249 761.198 696.143 760.436 692.393 760.436H685.655L685.772 747.429H691.749C695.421 747.429 698.37 746.589 700.596 744.909C702.862 743.229 703.995 740.807 703.995 737.643C703.995 734.714 703.038 732.565 701.124 731.198C699.249 729.792 696.651 729.089 693.331 729.089C686.69 729.089 680.577 731.296 674.991 735.71L666.436 721.647C674.6 714.382 685.167 710.749 698.135 710.749C705.909 710.749 712.296 712.604 717.296 716.315C722.296 720.026 724.796 725.612 724.796 733.073C724.796 738.073 723.624 742.272 721.28 745.671C718.975 749.03 715.811 751.589 711.788 753.347Z" fill="#DAD0BD"/>
<path d="M304.422 776.905V793.663H293.406V808.077H274.422V793.663H236.981V777.374L268.328 724.17H293.406V776.905H304.422ZM257.02 776.905H274.422V744.62L257.02 776.905Z" fill="#DAD0BD"/>
<path d="M140.275 332.109C147.424 332.109 153.127 334.121 157.384 338.145C161.681 342.207 163.83 348.438 163.83 356.836C163.83 361.992 163.009 366.406 161.369 370.078C159.728 373.75 157.482 376.758 154.631 379.102C151.818 381.445 148.478 383.164 144.611 384.258C140.744 385.352 136.584 385.898 132.131 385.898C120.256 385.898 110.412 382.539 102.599 375.82L110.685 359.473C116.271 364.746 122.658 367.383 129.845 367.383C133.595 367.383 136.74 366.406 139.279 364.453C141.779 362.539 143.029 359.805 143.029 356.25C143.029 352.852 142.17 350.391 140.451 348.867C138.771 347.305 136.525 346.523 133.713 346.523C129.22 346.523 125.646 348.281 122.99 351.797L108.986 346.992V300.352H158.322V317.988H127.326V335.273C131.271 333.164 135.588 332.109 140.275 332.109Z" fill="#DAD0BD"/>
<path d="M528.856 323.723L527.58 332.057H545.81L544.731 323.723H528.856Z" fill="#808369" stroke="#2F2521" stroke-width="3" stroke-linecap="round" stroke-linejoin="round"/>
<path d="M545.81 332.057V353.506L543.262 352.134L541.204 353.506L537.969 351.155L534.538 353.506L532.09 351.448L527.58 354.485V332.057" fill="#808369"/>
<path d="M545.81 332.057V353.506L543.262 352.134L541.204 353.506L537.969 351.155L534.538 353.506L532.09 351.448L527.58 354.485V332.057" stroke="#2F2521" stroke-width="3" stroke-linecap="round" stroke-linejoin="round"/>
<path d="M536.694 324.161V332.057" stroke="#2F2521" stroke-width="3" stroke-linecap="round" stroke-linejoin="round"/>
<path d="M485.419 408.299L493.36 408.605V405.076L485.419 408.299Z" fill="#808369" stroke="#2F2521" stroke-width="3" stroke-linecap="round" stroke-linejoin="round"/>
<path d="M581.491 415.934L621.614 418.996V453.255L623.093 452.853L624.294 455.416L626.617 454.537L629.181 456.617L631.185 454.134L632.705 454.456V413.213L581.491 410.009" fill="#808369"/>
<path d="M581.491 415.934L621.614 418.996V453.255L623.093 452.853L624.294 455.416L626.617 454.537L629.181 456.617L631.185 454.134L632.705 454.456V413.213L581.491 410.009" stroke="#2F2521" stroke-width="3" stroke-linecap="round" stroke-linejoin="round"/>
<path d="M581.008 412.492L627.419 415.934" stroke="#2F2521" stroke-width="3" stroke-linecap="round" stroke-linejoin="round"/>
<path d="M515.61 443.804L470.113 462.584L486.082 464.889L530.95 445.269L515.61 443.804Z" fill="#808369" stroke="#2F2521" stroke-width="3" stroke-linecap="round" stroke-linejoin="round"/>
<path d="M469.044 462.429L469.495 491.938L473.045 488.235L475.748 491.323L478.141 490.473L480.921 493.098L482.928 491.938L485.554 494.257L485.245 464.889L469.044 462.429Z" fill="#808369" stroke="#2F2521" stroke-width="3" stroke-linecap="round" stroke-linejoin="round"/>
<path d="M478.219 463.692L521.702 444.387" stroke="#2F2521" stroke-width="3" stroke-linecap="round" stroke-linejoin="round"/>
<path d="M444.351 541.332L518.644 555.297V469.588L443.382 458.729L444.351 541.332Z" stroke="#2F2521" stroke-width="3" stroke-linecap="round" stroke-linejoin="round"/>
<path d="M518.645 555.297L561.383 531.861L561.915 449.575L518.645 469.588" stroke="#2F2521" stroke-width="3" stroke-linecap="round" stroke-linejoin="round"/>
<path d="M561.914 449.575L489.026 439.444L443.382 458.729" stroke="#2F2521" stroke-width="3" stroke-linecap="round" stroke-linejoin="round"/>
<path d="M561.915 522.281L606.151 527.527V426.493L463.812 415.467L464.186 449.575" stroke="#2F2521" stroke-width="3" stroke-linecap="round" stroke-linejoin="round"/>
<path d="M606.151 527.527L643.378 503.772L643.845 408.222L606.151 426.493" stroke="#2F2521" stroke-width="3" stroke-linecap="round" stroke-linejoin="round"/>
<path d="M494.444 417.27H580.978L581.491 332.057H494.444V417.27Z" stroke="#2F2521" stroke-width="3" stroke-linecap="round" stroke-linejoin="round"/>
<path d="M494.444 332.057L498.684 323.33H577.383L581.491 332.057" stroke="#2F2521" stroke-width="3" stroke-linecap="round" stroke-linejoin="round"/>
<path d="M463.812 415.467L494.445 404.693" stroke="#2F2521" stroke-width="3" stroke-linecap="round" stroke-linejoin="round"/>
<path d="M581.491 404.181L643.845 408.222" stroke="#2F2521" stroke-width="3" stroke-linecap="round" stroke-linejoin="round"/>
<path d="M329.598 357.181L329.755 397.632C329.755 397.632 332.135 397.99 332.784 398.333C333.432 398.677 334.861 399.886 334.861 399.886L335.403 401.905L334.534 405.555V407.895L334.118 414.322L332.494 417.292L330.108 418.852L330.284 446.363C330.284 446.363 330.706 448.496 331.329 448.496C331.953 448.496 425.309 448.424 425.309 448.424L425.662 427.934L424.497 423.683L424.056 420.577L421.544 418.473L423.169 415.954L421.318 412.926L422.577 410.407L425.309 408.475L425.41 402.341L425.756 359.071L329.592 357.174L329.598 357.181Z" fill="#DAD0BD"/>
<path d="M336.895 353.431L425.794 354.683L440.551 345.372L354.207 344.549L336.895 353.431Z" fill="#DAD0BD"/>
<path d="M427.915 356.78L443.918 347.233V438.612L428.538 447.923L428.733 428.006L442.961 419.131L443.352 398.076L436.383 402.491L429.105 402.126L427.915 356.78Z" fill="#DAD0BD"/>
<path d="M334.716 412.103C334.779 411.996 334.703 412.103 335.547 410.135C336.038 408.976 336.12 408.804 336.151 408.425C336.17 408.138 336.246 407.194 335.774 406.371C335.585 406.041 335.352 405.805 335.396 405.462C335.427 405.204 335.578 405.089 335.729 404.86C336.006 404.431 336.038 403.98 336.082 403.429C336.189 402.019 335.49 400.838 335.327 400.559C334.747 399.586 334.042 399.099 333.432 398.698C332.896 398.34 332.588 398.233 329.27 397.267C327.999 396.895 327.344 396.716 326.45 396.873C325.94 396.966 325.115 397.124 324.807 397.839C324.549 398.434 324.788 399.092 324.832 399.214C325.002 399.693 325.392 400.23 326.519 400.76C328.062 401.482 330.026 401.74 331.612 401.933C332.009 401.983 332.67 402.062 332.896 402.563C333.054 402.914 332.978 403.393 332.771 403.708C332.519 404.102 332.097 404.195 331.921 404.223C330.133 404.581 327.514 402.205 325.103 402.928C324.826 403.014 323.982 403.264 323.768 403.987C323.573 404.646 324.001 405.333 324.095 405.476C324.549 406.17 325.273 406.406 326.192 406.592C328.257 407.007 330.46 406.979 332.122 407.544C332.387 407.637 332.846 407.816 332.953 408.224C333.054 408.611 332.815 409.047 332.601 409.283C332.248 409.67 331.776 409.727 331.593 409.741C327.734 410.114 325.808 410.3 324.706 409.484C324.473 409.312 324.039 408.947 323.648 409.112C323.22 409.283 323.025 410.006 323.019 410.514C323.006 411.359 323.504 411.953 323.648 412.117C324.265 412.833 325.04 412.948 326.399 413.119C328.036 413.327 328.855 413.434 329.831 413.177C330.542 412.991 331.329 412.633 331.776 413.062C331.814 413.098 332.053 413.327 332.053 413.635C332.053 414.014 331.713 414.222 331.751 414.286C331.826 414.422 333.709 413.849 334.728 412.089L334.716 412.103Z" fill="#2F2521"/>
<path d="M404.162 340.849C400.549 338.781 397.136 336.333 394.883 335.36C392.579 334.358 391.357 333.95 389.903 333.692C387.567 333.284 385.767 333.47 383.752 333.692C381.876 333.9 379.301 334.344 376.286 335.36L375.637 340.334C373.793 340.871 372.03 341.157 371.589 340.334C371.104 339.418 372.666 337.292 372.181 336.526C371.734 335.825 370.135 336.813 367.642 337.192C366.528 337.357 362.171 338.022 360.024 335.36C359.766 335.045 358.652 333.649 358.853 332.197C359.495 327.623 371.91 326.049 378.754 326.249C380.579 326.306 382.178 326.485 382.581 326.535C384.149 326.722 388.046 327.258 392.83 329.033C395.682 330.092 399.371 332.282 406.743 336.691C410.533 338.96 411.862 339.84 411.723 340.355C411.497 341.214 407.669 341.551 404.162 340.849Z" fill="#2F2521"/>
<path d="M407.191 336.956C407.449 334.222 407.228 332.01 406.989 330.529C406.788 329.262 406.548 327.859 405.818 326.199C405.132 324.646 404.364 323.665 403.426 322.485C402.009 320.695 401.103 319.557 399.573 318.548C396.973 316.831 394.436 316.709 393.177 316.659C392.509 316.637 390.967 316.63 389.078 317.16C387.064 317.718 385.679 318.591 384.539 319.321C382.783 320.445 381.845 321.411 380.636 322.649C379.931 323.372 379.094 324.317 378.974 325.669C378.949 325.934 378.961 326.163 378.974 326.314L373.163 326.428C373.144 326.278 373.119 326.049 373.113 325.762C373.069 322.606 375.688 320.18 377.507 318.491C378.464 317.604 379.83 316.501 381.606 315.55C383.293 314.648 384.401 314.054 386 313.882C387.152 313.76 387.989 313.567 390.929 313.717C391.238 313.732 391.49 313.674 391.659 313.66C391.641 313.474 391.634 313.195 391.71 312.88C391.936 311.928 392.73 311.47 392.982 311.327C394.31 310.561 395.758 311.27 396.104 311.442C396.501 311.635 397.942 312.343 398.201 313.825C398.27 314.204 398.238 314.54 398.201 314.769C399.132 315.034 400.36 315.464 401.713 316.215C402.784 316.802 404.502 317.897 406.253 319.765C408.16 321.805 409.205 323.801 409.57 324.539C410.817 327.058 411.245 329.241 411.717 331.638C411.956 332.869 412.151 333.886 412.208 335.303C412.284 337.421 411.994 339.174 411.723 340.355L407.191 336.956Z" fill="#2F2521"/>
<path d="M447.073 366.786C448.388 368.124 450.038 369.82 451.926 371.803C455.068 375.102 455.773 375.961 456.207 376.498C456.793 377.228 458.48 379.368 460.337 382.474C461.187 383.905 462.213 385.63 463.265 388.113C464.14 390.167 464.839 391.849 465.216 394.261C465.279 394.662 465.544 396.43 465.443 398.791C465.393 399.929 465.292 401.933 464.543 404.345C463.768 406.828 462.698 408.482 461.987 409.555C460.495 411.81 459.009 413.191 457.926 414.171C456.881 415.123 455.823 415.861 453.721 417.335C450.844 419.346 449.339 420.112 447.784 420.663C447.243 420.856 447.324 420.799 446.733 421.006C442.489 422.481 440.89 424.513 440.343 423.998C439.782 423.461 441.488 421.314 442.074 416.82C442.345 414.751 442.238 413.248 442.15 412.125C441.998 410.164 441.885 408.89 441.098 407.68C440.456 406.693 439.612 406.127 438.995 405.712C437.415 404.653 436.521 404.782 436.137 403.916C435.747 403.021 436.263 401.897 436.515 401.353C438.101 397.897 442.464 396.716 443.805 396.401L443.654 366.779H447.066L447.073 366.786Z" fill="#2F2521"/>
<path d="M326.274 386.31C325.015 385.759 322.138 390.797 320.847 393.51C320.564 394.104 319.714 395.95 318.965 398.562C318.272 400.974 317.555 403.479 317.68 406.786C317.743 408.432 317.863 410.901 319.185 413.556C319.708 414.601 320.935 416.991 323.479 418.351C324.883 419.103 326.11 419.239 326.721 419.296C327.81 419.403 329.938 419.403 332.148 418.093C333.287 417.421 334.773 416.548 335.239 414.751C335.566 413.484 335.358 411.888 334.785 411.667C334.307 411.48 333.841 412.354 332.072 413.978C331.09 414.88 330.599 415.331 330.114 415.603C328.156 416.705 325.348 415.989 323.479 414.315C321.773 412.79 321.225 410.75 320.916 409.605C319.808 405.512 320.986 401.854 321.747 399.493C322.32 397.711 322.874 395.986 324.234 394.268C325.197 393.051 325.808 392.794 326.343 391.613C327.281 389.559 327.105 386.668 326.268 386.303L326.274 386.31Z" fill="#2F2521"/>
<path d="M431.201 450.486L433.046 460.634L434.607 476.257L435.319 491.716L434.607 509.43L433.26 522.799L429.646 542.774C428.872 543.239 428.066 543.668 427.235 544.062C415.891 549.437 403.992 545.701 396.633 542.287C396.381 541.786 396.041 541.02 395.783 540.033C395.027 537.105 395.625 534.586 395.927 533.105C396.57 529.898 396.387 526.556 396.639 523.278C397.061 517.818 397.13 513.745 397.205 509.108C397.306 503.289 397.35 500.383 397.061 496.383C396.973 495.152 396.664 491.194 395.783 486.077C394.769 480.144 393.529 475.821 393.233 474.805C392.396 471.935 391.288 468.621 389.796 465.021L389.701 458.165C390.035 458.401 390.601 458.838 391.212 459.503C392.503 460.913 393.12 462.395 393.378 463.046C398.049 474.611 399.472 487.687 399.472 487.687C400.202 494.436 400.693 498.923 400.888 506.044C401.109 514.082 400.951 525.096 399.327 538.258L400.164 539.546C401.745 540.004 403.413 540.412 405.169 540.734C413.486 542.287 420.908 541.578 426.769 540.269L427.411 537.685L428.148 532.797C428.192 531.881 429.401 523.414 429.401 523.414C429.672 519.743 430.565 513.523 430.704 512.507C430.842 511.491 431.648 502.466 431.648 502.466L432.095 489.77L431.781 484.266L430.477 467.44L429.269 456.583L428.419 452.096L431.201 450.478V450.486Z" fill="#2F2521"/>
<path d="M440.532 424.069C439.808 424.499 438.92 424.978 437.894 425.458C436.44 426.131 435.294 426.524 434.923 426.653C434.337 426.846 432.644 427.39 430.289 427.748C428.186 428.063 426.776 428.049 425.656 427.949C424.031 427.798 423.402 427.505 422.948 426.954C422.508 426.417 422.193 425.587 422.162 424.771C422.117 423.74 422.539 423.447 422.338 422.688C422.174 422.08 421.853 422.073 421.205 421.2C420.625 420.427 420.015 419.611 420.071 418.716C420.134 417.65 421.072 417.521 421.123 416.433C421.154 415.767 420.814 415.71 420.336 414.25C420.065 413.42 419.857 412.783 419.901 411.967C419.914 411.695 419.977 410.665 420.6 409.784C421.142 409.019 421.985 408.668 423.66 407.995C424.887 407.501 425.083 407.544 425.322 407.201C425.977 406.235 425.02 405.032 425.41 403.722C425.851 402.255 427.676 401.733 429.08 401.339C430.516 400.931 433.116 400.466 436.534 401.375C437.095 402.892 437.548 404.46 437.139 404.789C436.874 404.996 436.415 404.689 435.905 404.417C433.601 403.179 430.503 402.928 429.779 404.087C429.534 404.481 429.515 405.111 429.735 405.397C429.974 405.698 430.339 405.433 431.013 405.633C431.196 405.691 432.02 405.934 432.373 406.757C432.606 407.308 432.606 408.088 432.247 408.582C432.008 408.911 431.687 409.011 431.139 409.14C429.848 409.448 428.841 409.57 428.797 409.577C427.733 409.706 428.193 409.806 424.762 410.829C424.044 411.044 423.465 411.201 423.238 411.767C423.081 412.153 423.118 412.676 423.351 413.019C423.622 413.413 424.101 413.506 425.133 413.449C426.518 413.377 427.607 413.112 428.671 412.84C429.678 412.583 430.22 412.454 431.303 412.189C433.292 411.702 433.802 411.602 434.18 411.953C434.627 412.375 434.79 413.32 434.551 414.057C434.217 415.073 433.298 415.138 428.174 416.812C426.021 417.521 425.649 417.686 424.843 417.657C424.214 417.635 423.572 417.499 423.402 417.843C423.238 418.179 423.578 418.845 423.987 419.203C424.308 419.496 424.982 419.868 427.393 419.153C428.954 418.687 430.522 417.986 432.82 417.421C433.349 417.292 433.947 417.163 434.217 417.514C434.602 418 434.199 419.224 433.764 419.947C431.913 423.01 426.751 421.493 426.241 423.497C426.134 423.912 426.241 424.463 426.487 424.807C426.902 425.372 427.708 425.372 428.419 425.272C434.375 424.47 438.568 420.641 438.568 420.641C439.758 419.553 441.394 417.843 442.975 415.309" fill="#2F2521"/>
<path d="M356.052 452.268C355.278 455.145 354.157 459.36 352.848 464.484C349.064 479.242 348.548 482.513 348.227 485.59C348.095 486.85 347.541 492.511 347.943 499.839C348.265 505.615 349.114 511.247 350.109 517.839C350.386 519.671 350.292 518.934 350.77 522.019C352.054 530.313 352.376 533.262 353.786 537.341C354.132 538.336 354.447 539.131 354.636 539.589C361.693 540.898 369.764 540.92 378.011 537.871C378.653 537.635 379.283 537.384 379.893 537.12C379.793 534.629 379.616 530.879 379.327 526.298C379.025 521.482 378.892 520.444 378.666 516.658C378.288 510.238 378.099 507.025 378.194 502.838C378.345 496.211 379.1 491.086 379.465 488.818C380.019 485.418 380.731 482.584 382.153 476.909C385.289 464.406 385.899 465.909 386.869 462.123C386.963 461.743 387.228 460.684 388.002 459.661C388.587 458.888 389.242 458.422 389.695 458.158L389.79 465.014C388.556 468.428 386.844 473.38 384.98 479.478C383.255 485.146 382.38 488.038 381.87 491.051C380.491 499.174 381.027 506.044 381.304 508.728C381.625 511.841 381.845 511.734 382.248 515.692C382.745 520.666 382.783 524.702 382.814 527.909C382.814 528.138 382.814 527.973 382.814 537.656V539.904C379.364 541.45 376.343 542.301 374.051 542.795C370.135 543.64 367.283 543.69 362.644 543.761C357.727 543.84 359.641 543.368 355.479 543.224C354.881 543.203 353.591 543.167 352.18 542.366C351.545 542.001 351.072 541.593 350.764 541.292C350.216 538.837 349.48 535.423 348.693 531.33C347.918 527.307 346.722 521.038 345.677 512.793C344.594 504.255 344.053 499.868 344.261 493.935C344.317 492.267 344.512 488.26 345.299 483.221C345.941 479.092 346.735 475.935 348.315 469.616C348.806 467.641 349.429 465.3 350.669 460.612C351.601 457.106 352.382 454.193 352.93 452.146L356.04 452.253L356.052 452.268Z" fill="#2F2521"/>
<path d="M399.201 543.403V550.009C399.201 550.009 399.264 552.063 398.244 554.117C397.225 556.171 396.28 563.493 396.28 563.493C396.28 563.493 398.119 565.368 399.201 565.812C400.284 566.255 414.814 572.596 417.717 572.238C417.717 572.238 414.89 572.861 425.101 573.491C435.313 574.121 438.372 573.047 438.372 573.047L441.438 571.258V569.562L438.139 570.363C438.139 570.363 437.195 570.986 435.313 571.079C433.43 571.172 431.227 571.523 430.131 571.165C429.036 570.807 425.265 570.628 425.265 570.628L402.96 551.798L402.991 544.169L399.208 543.396L399.201 543.403Z" fill="#2F2521"/>
<path d="M379.886 540.376V546.982C379.886 546.982 379.824 549.036 380.875 551.09C381.926 553.144 382.896 560.465 382.896 560.465C382.896 560.465 381.001 562.341 379.886 562.784C378.772 563.228 363.808 569.569 360.817 569.211C360.817 569.211 363.732 569.834 353.212 570.464C342.692 571.093 339.545 570.02 339.545 570.02L336.391 568.231V566.534L339.79 567.336C339.79 567.336 340.76 567.959 342.705 568.052C344.65 568.145 346.91 568.495 348.044 568.138C349.177 567.78 353.061 567.601 353.061 567.601L376.034 548.771L376.002 541.142L379.899 540.369L379.886 540.376Z" fill="#2F2521"/>
<path d="M336.385 566.534C336.385 566.534 335.818 563.987 337.222 562.441C338.626 560.895 342.283 557.968 342.283 557.968L346.722 555.513L350.386 553.495L353.892 551.433C353.892 551.433 356.077 550.403 356.385 549.544C356.694 548.685 357.475 548.428 357.475 547.139C357.475 545.851 357.185 543.074 357.185 543.074H361.063V546.452L360.282 554.804C360.282 554.804 356.077 552.901 355.296 552.901C355.296 552.901 354.05 552.901 354.207 553.845C354.365 554.79 358.494 557.46 358.494 557.46L360.522 558.834L358.419 560.809C358.419 560.809 357.871 559.864 356.707 559.091C355.542 558.318 352.577 556.858 352.577 556.858C352.577 556.858 350.707 556 349.851 557.374C349.851 557.374 349.536 558.404 350.398 558.834C351.261 559.263 354.837 561.496 354.837 561.496L356.474 562.698L358.186 562.527L358.419 564.158L352.652 567.622C352.652 567.622 353.357 566.305 352.268 565.618L349.152 562.605C349.152 562.605 345.803 561.832 343.851 561.918C343.851 561.918 341.043 562.949 340.659 563.894C340.275 564.838 339.123 566.033 339.425 567.243C339.727 568.453 336.391 566.527 336.391 566.527L336.385 566.534Z" fill="#2F2521"/>
<path d="M376.021 548.771C376.021 548.771 372.514 551.09 371.425 551.176C370.336 551.262 368.152 551.605 368.152 551.605C368.152 551.605 368.617 549.293 367.686 548.771C366.754 548.249 365.501 547.046 364.494 546.96C363.487 546.874 360.754 546.96 360.754 546.96L360.288 554.797L362.549 556.765C362.549 556.765 363.638 557.023 363.014 557.968C362.391 558.912 361.61 559.513 361.069 559.17C360.528 558.826 359.646 558.232 359.646 558.232L358.419 560.809C358.419 560.809 358.884 561.925 358.186 562.527C357.487 563.128 358.387 563.951 358.387 563.951L376.569 551.691L376.021 548.771Z" fill="#2F2521"/>
<path d="M382.896 560.465V565.54C382.896 565.54 382.802 567.1 382.097 567.651C381.392 568.202 378.124 570.099 378.124 570.099L371.967 572.246L362.776 574.736L355.92 576.025L346.571 576.712L340.338 576.196C340.338 576.196 338.393 575.595 337.688 574.393C336.983 573.19 336.567 572.94 336.271 570.657C335.976 568.374 336.385 567 336.385 567L339.539 570.02C339.539 570.02 339.016 571.215 339.715 572.246C340.414 573.276 344.859 573.62 344.859 573.62L351.872 573.534L359.533 572.417L365.275 570.657L372.206 568.589L376.569 566.656L378.987 565.282L379.767 564.767L379.893 562.784L382.903 560.465H382.896Z" fill="#2F2521"/>
<path d="M441.438 569.562C441.438 569.562 441.986 567.014 440.626 565.468C439.266 563.922 435.709 560.995 435.709 560.995L431.397 558.54L427.84 556.522L424.434 554.461C424.434 554.461 422.319 553.43 422.017 552.571C421.714 551.713 420.959 551.455 420.959 550.167C420.959 548.878 421.242 546.102 421.242 546.102H417.478V549.48L418.233 557.832C418.233 557.832 422.319 555.928 423.074 555.928C423.074 555.928 424.283 555.928 424.132 556.873C423.981 557.817 419.971 560.487 419.971 560.487L418.006 561.861L420.046 563.836C420.046 563.836 420.575 562.892 421.708 562.119C422.841 561.346 425.718 559.886 425.718 559.886C425.718 559.886 427.532 559.027 428.369 560.401C428.369 560.401 428.671 561.432 427.84 561.861C427.009 562.29 423.528 564.523 423.528 564.523L421.941 565.726L420.279 565.554L420.052 567.186L425.655 570.65C425.655 570.65 424.969 569.333 426.033 568.646L429.061 565.633C429.061 565.633 432.316 564.86 434.205 564.946C434.205 564.946 436.931 565.976 437.308 566.921C437.686 567.866 438.801 569.061 438.505 570.27C438.209 571.48 441.451 569.555 441.451 569.555L441.438 569.562Z" fill="#2F2521"/>
<path d="M402.953 551.806C402.953 551.806 406.359 554.124 407.417 554.21C408.474 554.296 410.596 554.64 410.596 554.64C410.596 554.64 410.143 552.328 411.049 551.806C411.956 551.283 413.165 550.081 414.153 549.995C415.141 549.909 417.785 549.995 417.785 549.995L418.239 557.832L416.048 559.8C416.048 559.8 414.99 560.057 415.595 561.002C416.199 561.947 416.954 562.548 417.483 562.204C418.012 561.861 418.862 561.267 418.862 561.267L420.052 563.843C420.052 563.843 419.599 564.96 420.279 565.561C420.958 566.162 420.083 566.985 420.083 566.985L402.431 554.726L402.96 551.806H402.953Z" fill="#2F2521"/>
<path d="M396.28 563.493V568.567C396.28 568.567 396.375 570.127 397.055 570.678C397.735 571.229 400.914 573.126 400.914 573.126L406.888 575.273L415.815 577.764L422.47 579.052L431.548 579.739L437.598 579.224C437.598 579.224 439.487 578.622 440.173 577.42C440.859 576.218 441.262 575.967 441.551 573.684C441.841 571.401 441.444 570.027 441.444 570.027L438.379 573.047C438.379 573.047 438.888 574.242 438.209 575.273C437.529 576.304 433.216 576.647 433.216 576.647L426.411 576.561L418.969 575.445L413.398 573.684L406.668 571.616L402.431 569.683L400.089 568.309L399.334 567.794L399.214 565.812L396.293 563.493H396.28Z" fill="#2F2521"/>
<path d="M352.791 340.355C352.791 340.355 445.147 339.99 445.663 342.145C446.179 344.299 442.779 343.962 442.779 343.962L440.544 345.372L354.208 344.549L352.791 340.348V340.355Z" fill="#231F20"/>
<path d="M425.662 427.941L425.31 448.431V452.611H427.148L445.795 440.86C446.903 439.6 446.809 437.396 446.809 437.396V431.985L446.74 420.999L443.636 422.108C443.636 422.108 443.762 428.385 443.762 428.671C443.762 428.958 444.014 436.966 443.699 437.753C443.384 438.541 439.701 440.638 439.701 440.638L429.868 446.986L428.533 447.923L428.728 427.927H425.656L425.662 427.941Z" fill="#2F2521"/>
<path d="M425.397 403.708L425.788 354.684L445.663 342.145C445.663 342.145 445.883 341.15 446.752 342.145C447.621 343.139 447.299 345 447.299 345L446.701 396.043C446.701 396.043 444.359 395.778 443.805 396.408C443.251 397.038 443.698 358.906 443.698 358.906L443.919 348.972V347.233L429.175 356.795C429.175 356.795 428.954 356.423 428.847 358.534C428.74 360.645 429.068 401.325 429.068 401.325C429.068 401.325 425.303 402.978 425.397 403.708Z" fill="#2F2521"/>
<path d="M329.586 377.564V357.182L354.208 344.55L352.791 340.349L328.396 352.594C328.396 352.594 327.282 352.472 326.532 354.577C325.783 356.681 325.783 358.663 325.783 358.663L326.325 397.074C326.325 397.074 328.295 396.523 329.749 397.625" fill="#2F2521"/>
<path d="M326.941 418.852V449.519C326.941 449.519 326.652 451.087 328.433 452.167C330.215 453.248 329.831 452.167 329.831 452.167L425.303 452.618V448.439L331.323 448.51C331.323 448.51 330.523 447.93 330.278 446.377C330.032 444.824 330.102 418.866 330.102 418.866C330.102 418.866 328.477 419.883 326.935 418.866L326.941 418.852Z" fill="#2F2521"/>
<path d="M329.599 357.181L425.757 359.078L425.794 354.683L335.403 353.431L329.599 357.181Z" fill="#2F2521"/>
</svg>
