<svg width="121" height="121" viewBox="0 0 121 121" fill="none" xmlns="http://www.w3.org/2000/svg">
<path d="M60.5 120.76C27.2716 120.76 0.235596 93.7237 0.235596 60.4953C0.235596 27.267 27.2716 0.230957 60.5 0.230957C93.7283 0.230957 120.764 27.267 120.764 60.4953C120.764 93.7237 93.7283 120.76 60.5 120.76ZM22.2386 105.175C32.8984 114.318 46.4801 119.346 60.5 119.346C64.5716 119.346 68.648 118.922 72.6254 118.088V26.9654H36.5648L22.2339 105.175H22.2386ZM76.8668 117.032C88.4738 113.663 99.0111 106.58 106.589 97.0508L76.8668 54.2276V117.032ZM12.1631 26.9654C5.28276 36.8524 1.64937 48.4406 1.64937 60.4953C1.64937 76.0233 7.64847 90.6511 18.5581 101.735L32.2575 26.9654H12.1678H12.1631ZM109.242 93.4362C115.859 83.6812 119.351 72.3003 119.351 60.4953C119.351 45.3491 113.597 30.9711 103.135 19.9719L78.9308 49.7601L109.237 93.4315L109.242 93.4362ZM76.8668 45.5847L100.09 16.9983C93.4503 10.9474 85.4295 6.44685 76.8668 3.96332V45.5847ZM72.6254 22.7241V2.90299C68.648 2.06887 64.5716 1.64473 60.5 1.64473C43.054 1.64473 26.6449 9.32151 15.4054 22.7241H72.6254Z" fill="#F0EADE"/>
<path d="M60.5 0.471257C93.6011 0.471257 120.529 27.3989 120.529 60.5C120.529 93.6011 93.6011 120.529 60.5 120.529C27.3989 120.529 0.471257 93.6011 0.471257 60.5C0.471257 27.3989 27.3989 0.471257 60.5 0.471257ZM14.9011 22.9597H72.8611V2.71443C68.8743 1.86146 64.7366 1.40905 60.5 1.40905C42.1634 1.40905 25.7495 9.80686 14.9011 22.9597ZM76.6311 46.2445L100.415 16.97C93.7189 10.8248 85.6086 6.19703 76.6311 3.64753V46.2445ZM109.242 93.8509C115.764 84.3503 119.586 72.8611 119.586 60.4953C119.586 44.6469 113.314 30.2406 103.12 19.6184L78.6387 49.7506L109.242 93.8509ZM60.5 119.582C64.7413 119.582 68.8743 119.129 72.8611 118.276V26.7297H36.3716L21.9842 105.265C32.333 114.181 45.8015 119.582 60.5 119.582ZM18.7042 102.225L32.5356 26.7344H12.0406C5.34879 36.3104 1.41377 47.9551 1.41377 60.5C1.41377 76.7725 8.02551 91.5323 18.7042 102.225ZM76.6311 117.343C88.7377 113.903 99.2751 106.688 106.881 97.0601L76.6311 53.4736V117.343ZM60.5 0C27.1397 0 0 27.1397 0 60.5C0 93.8603 27.1397 121 60.5 121C93.8603 121 121 93.8603 121 60.5C121 27.1397 93.8603 0 60.5 0ZM15.9096 22.4884C27.0973 9.37802 43.2897 1.88031 60.4953 1.88031C64.4868 1.88031 68.4831 2.29031 72.3851 3.09616V22.4884H15.9049H15.9096ZM77.1024 44.9202V4.27901C85.4484 6.7484 93.2618 11.1452 99.7699 17.0218L77.1024 44.9202ZM79.2278 49.7742L103.149 20.33C113.446 31.2585 119.115 45.4999 119.115 60.4953C119.115 72.1353 115.703 83.3654 109.237 93.0167L79.2278 49.7742ZM36.7628 27.201H72.3898V117.894C68.4878 118.7 64.4915 119.11 60.5 119.11C46.5791 119.11 33.0917 114.129 22.4931 105.081L36.7628 27.201ZM12.2857 27.201H31.9701L18.4026 101.245C7.74278 90.241 1.88031 75.8064 1.88031 60.4953C1.88031 48.5301 5.47601 37.0267 12.281 27.201H12.2857ZM77.1024 116.716V54.9769L106.292 97.0413C98.8227 106.382 88.488 113.347 77.1024 116.716Z" fill="#F0EADE"/>
<path d="M108.747 46.1641H104.506V76.7864H108.747V46.1641Z" fill="#F0EADE"/>
<path d="M108.512 46.4V76.551H104.742V46.4H108.512ZM108.983 45.9287H104.27V77.0223H108.983V45.9287Z" fill="#F0EADE"/>
<path d="M53.2424 44.0013L53.5864 43.6101C58.2189 38.3179 59.3122 33.9776 59.3546 33.7938L59.397 33.6147H65.481L65.4103 33.9069C65.3962 33.9588 63.7656 39.4348 58.8975 43.94L58.8315 44.0013H53.2471H53.2424Z" fill="#F0EADE"/>
<path d="M65.1794 33.8505C65.1182 34.1002 63.4122 39.4396 58.7327 43.7657H53.7609C58.5017 38.3557 59.5715 33.9023 59.5809 33.8505H65.1794ZM65.778 33.3792H59.2133L59.1238 33.7374C59.0814 33.9165 58.0022 38.2049 53.4074 43.4547L52.7241 44.237H58.9212L59.0578 44.1097C63.973 39.5621 65.6272 34.0107 65.6413 33.9589L65.7827 33.3745L65.778 33.3792Z" fill="#F0EADE"/>
<path d="M49.3972 90.58C45.2784 90.58 41.2491 88.6761 38.3462 85.3585C35.3348 81.9183 33.676 77.1539 33.676 71.9512C33.676 59.1518 42.1964 49.5005 53.4924 49.5005C64.7884 49.5005 69.1852 59.9341 69.1852 68.8692C69.1852 80.8391 60.3068 90.58 49.3972 90.58ZM53.4924 53.7418C44.4678 53.7418 37.9173 61.3997 37.9173 71.9512C37.9173 79.02 42.2105 86.3387 49.3972 86.3387C57.9693 86.3387 64.9439 78.5017 64.9439 68.8692C64.9439 61.5552 61.9373 53.7418 53.4924 53.7418Z" fill="#F0EADE"/>
<path d="M53.4924 49.7364C64.9016 49.7364 68.9496 60.0428 68.9496 68.8694C68.9496 80.7121 60.1796 90.3446 49.3972 90.3446C45.3444 90.3446 41.3811 88.4737 38.5253 85.2079C35.5517 81.8102 33.9164 77.1023 33.9164 71.9562C33.9164 59.2888 42.3331 49.7411 53.4971 49.7411M49.3972 86.5746C58.1013 86.5746 65.1796 78.6339 65.1796 68.8694C65.1796 61.4424 62.1117 53.5065 53.4924 53.5065C44.3312 53.5065 37.6817 61.2634 37.6817 71.9515C37.6817 79.1381 42.0644 86.5746 49.3972 86.5746ZM53.4924 49.2651C42.0597 49.2651 33.4404 59.0202 33.4404 71.9515C33.4404 77.2154 35.1181 82.0317 38.1671 85.5142C41.1125 88.8837 45.2077 90.8159 49.3925 90.8159C60.434 90.8159 69.4162 80.9713 69.4162 68.8694C69.4162 59.826 65.2456 49.2651 53.4877 49.2651H53.4924ZM49.3972 86.1033C42.3613 86.1033 38.153 78.9072 38.153 71.9515C38.153 61.5367 44.6045 53.9777 53.4924 53.9777C61.763 53.9777 64.7083 61.6686 64.7083 68.8694C64.7083 78.37 57.8374 86.1033 49.3972 86.1033Z" fill="#F0EADE"/>
</svg>
