<?xml version="1.0" encoding="UTF-8"?>
<svg xmlns="http://www.w3.org/2000/svg" width="800" height="800" viewBox="0 0 800 800">
  <g id="Layer_6" data-name="Layer 6">
    <g id="Layer_5" data-name="Layer 5">
      <path d="M301.56,305.29l.25,56.52s3.78.5,4.81.98,3.3,2.17,3.3,2.17l.86,2.82-1.38,5.1v3.27l-.66,8.98-2.58,4.15-3.79,2.18.28,38.44s.67,2.98,1.66,2.98,149.28-.1,149.28-.1l.56-28.63-1.85-5.94-.7-4.34-3.99-2.94,2.58-3.52-2.94-4.23,2-3.52,4.34-2.7.16-8.57.55-60.46-152.75-2.65Z" style="fill: #dad0be;"/>
      <polygon points="313.15 300.05 454.36 301.8 477.8 288.79 340.65 287.64 313.15 300.05" style="fill: #dad0be;"/>
      <polygon points="457.73 304.73 483.15 291.39 483.15 419.07 458.72 432.08 459.03 404.25 481.63 391.85 482.25 362.43 471.18 368.59 459.62 368.09 457.73 304.73" style="fill: #dad0be;"/>
    </g>
  </g>
  <g id="mand">
    <g>
      <path d="M309.69,382.03c.1-.15-.02,0,1.32-2.75.78-1.62.91-1.86.96-2.39.03-.4.15-1.72-.6-2.87-.3-.46-.67-.79-.6-1.27.05-.36.29-.52.53-.84.44-.6.49-1.23.56-2,.17-1.97-.94-3.62-1.2-4.01-.92-1.36-2.04-2.04-3.01-2.6-.85-.5-1.34-.65-6.61-2-2.02-.52-3.06-.77-4.48-.55-.81.13-2.12.35-2.61,1.35-.41.83-.03,1.75.04,1.92.27.67.89,1.42,2.68,2.16,2.45,1.01,5.57,1.37,8.09,1.64.63.07,1.68.18,2.04.88.25.49.13,1.16-.2,1.6-.4.55-1.07.68-1.35.72-2.84.5-7-2.82-10.83-1.81-.44.12-1.78.47-2.12,1.48-.31.92.37,1.88.52,2.08.72.97,1.87,1.3,3.33,1.56,3.28.58,6.78.54,9.42,1.33.42.13,1.15.38,1.32.95.16.54-.22,1.15-.56,1.48-.56.54-1.31.62-1.6.64-6.13.52-9.19.78-10.94-.36-.37-.24-1.06-.75-1.68-.52-.68.24-.99,1.25-1,1.96-.02,1.18.77,2.01,1,2.24.98,1,2.21,1.16,4.37,1.4,2.6.29,3.9.44,5.45.08,1.13-.26,2.38-.76,3.09-.16.06.05.44.37.44.8,0,.53-.54.82-.48.91.12.19,3.11-.61,4.73-3.07Z" style="fill: #2f2521;"/>
      <g>
        <path d="M420,282.47c-5.74-2.89-11.16-6.31-14.74-7.67-3.66-1.4-5.6-1.97-7.91-2.33-3.71-.57-6.57-.31-9.77,0-2.98.29-7.07.91-11.86,2.33l-1.03,6.95c-2.93.75-5.73,1.15-6.43,0-.77-1.28,1.71-4.25.94-5.32-.71-.98-3.25.4-7.21.93-1.77.23-8.69,1.16-12.1-2.56-.41-.44-2.18-2.39-1.86-4.42,1.02-6.39,20.74-8.59,31.61-8.31,2.9.08,5.44.33,6.08.4,2.49.26,8.68,1.01,16.28,3.49,4.53,1.48,10.39,4.54,22.1,10.7,6.02,3.17,8.13,4.4,7.91,5.12-.36,1.2-6.44,1.67-12.01.69Z" style="fill: #2f2521;"/>
        <path d="M424.81,277.03c.41-3.82.06-6.91-.32-8.98-.32-1.77-.7-3.73-1.86-6.05-1.09-2.17-2.31-3.54-3.8-5.19-2.25-2.5-3.69-4.09-6.12-5.5-4.13-2.4-8.16-2.57-10.16-2.64-1.06-.03-3.51-.04-6.51.7-3.2.78-5.4,2-7.21,3.02-2.79,1.57-4.28,2.92-6.2,4.65-1.12,1.01-2.45,2.33-2.64,4.22-.04.37-.02.69,0,.9l-9.23.16c-.03-.21-.07-.53-.08-.93-.07-4.41,4.09-7.8,6.98-10.16,1.52-1.24,3.69-2.78,6.51-4.11,2.68-1.26,4.44-2.09,6.98-2.33,1.83-.17,3.16-.44,7.83-.23.49.02.89-.06,1.16-.08-.03-.26-.04-.65.08-1.09.36-1.33,1.62-1.97,2.02-2.17,2.11-1.07,4.41-.08,4.96.16.63.27,2.92,1.26,3.33,3.33.11.53.06,1,0,1.32,1.48.37,3.43.97,5.58,2.02,1.7.82,4.43,2.35,7.21,4.96,3.03,2.85,4.69,5.64,5.27,6.67,1.98,3.52,2.66,6.57,3.41,9.92.38,1.72.69,3.14.78,5.12.12,2.96-.34,5.41-.77,7.06l-7.2-4.75Z" style="fill: #2f2521;"/>
        <path d="M488.16,318.7c2.09,1.87,4.71,4.24,7.71,7.01,4.99,4.61,6.11,5.81,6.8,6.56.93,1.02,3.61,4.01,6.56,8.35,1.35,2,2.98,4.41,4.65,7.88,1.39,2.87,2.5,5.22,3.1,8.59.1.56.52,3.03.36,6.33-.08,1.59-.24,4.39-1.43,7.76-1.23,3.47-2.93,5.78-4.06,7.28-2.37,3.15-4.73,5.08-6.45,6.45-1.66,1.33-3.34,2.36-6.68,4.42-4.57,2.81-6.96,3.88-9.43,4.65-.86.27-.73.19-1.67.48-6.74,2.06-9.28,4.9-10.15,4.18-.89-.75,1.82-3.75,2.75-10.03.43-2.89.26-4.99.12-6.56-.24-2.74-.42-4.52-1.67-6.21-1.02-1.38-2.36-2.17-3.34-2.75-2.51-1.48-3.93-1.3-4.54-2.51-.62-1.25.2-2.82.6-3.58,2.52-4.83,9.45-6.48,11.58-6.92l-.24-41.39h5.42Z" style="fill: #2f2521;"/>
        <path d="M296.28,345.99c-2-.77-6.57,6.27-8.62,10.06-.45.83-1.8,3.41-2.99,7.06-1.1,3.37-2.24,6.87-2.04,11.49.1,2.3.29,5.75,2.39,9.46.83,1.46,2.78,4.8,6.82,6.7,2.23,1.05,4.18,1.24,5.15,1.32,1.73.15,5.11.15,8.62-1.68,1.81-.94,4.17-2.16,4.91-4.67.52-1.77.19-4-.72-4.31-.76-.26-1.5.96-4.31,3.23-1.56,1.26-2.34,1.89-3.11,2.27-3.11,1.54-7.57.54-10.54-1.8-2.71-2.13-3.58-4.98-4.07-6.58-1.76-5.72.11-10.83,1.32-14.13.91-2.49,1.79-4.9,3.95-7.3,1.53-1.7,2.5-2.06,3.35-3.71,1.49-2.87,1.21-6.91-.12-7.42Z" style="fill: #2f2521;"/>
        <path d="M462.95,435.66l2.93,14.18,2.48,21.83,1.13,21.6-1.13,24.75-2.14,18.68-5.74,27.91c-1.23.65-2.51,1.25-3.83,1.8-18.02,7.51-36.92,2.29-48.61-2.48-.4-.7-.94-1.77-1.35-3.15-1.2-4.09-.25-7.61.23-9.68,1.02-4.48.73-9.15,1.13-13.73.67-7.63.78-13.32.9-19.8.16-8.13.23-12.19-.23-17.78-.14-1.72-.63-7.25-2.03-14.4-1.61-8.29-3.58-14.33-4.05-15.75-1.33-4.01-3.09-8.64-5.46-13.67l-.15-9.58c.53.33,1.43.94,2.4,1.87,2.05,1.97,3.03,4.04,3.44,4.95,7.42,16.16,9.68,34.43,9.68,34.43,1.16,9.43,1.94,15.7,2.25,25.65.35,11.23.1,26.62-2.48,45.01l1.33,1.8c2.51.64,5.16,1.21,7.95,1.66,13.21,2.17,25,1.18,34.31-.65l1.02-3.61,1.17-6.83c.07-1.28,1.99-13.11,1.99-13.11.43-5.13,1.85-13.82,2.07-15.24s1.5-14.03,1.5-14.03l.71-17.74-.5-7.69-2.07-23.51-1.92-15.17-1.35-6.27,4.42-2.26Z" style="fill: #2f2521;"/>
        <path d="M477.77,398.75c-1.15.6-2.56,1.27-4.19,1.94-2.31.94-4.13,1.49-4.72,1.67-.93.27-3.62,1.03-7.36,1.53-3.34.44-5.58.42-7.36.28-2.58-.21-3.58-.62-4.3-1.39-.7-.75-1.2-1.91-1.25-3.05-.07-1.44.6-1.85.28-2.91-.26-.85-.77-.86-1.8-2.08-.92-1.08-1.89-2.22-1.8-3.47.1-1.49,1.59-1.67,1.67-3.19.05-.93-.49-1.01-1.25-3.05-.43-1.16-.76-2.05-.69-3.19.02-.38.12-1.82,1.11-3.05.86-1.07,2.2-1.56,4.86-2.5,1.95-.69,2.26-.63,2.64-1.11,1.04-1.35-.48-3.03.14-4.86.7-2.05,3.6-2.78,5.83-3.33,2.28-.57,6.41-1.22,11.84.05.89,2.12,1.61,4.31.96,4.77-.42.29-1.15-.14-1.96-.52-3.66-1.73-8.58-2.08-9.73-.46-.39.55-.42,1.43-.07,1.83.38.42.96.05,2.03.33.29.08,1.6.42,2.16,1.57.37.77.37,1.86-.2,2.55-.38.46-.89.6-1.76.78-2.05.43-3.65.6-3.72.61-1.69.18-.96.32-6.41,1.75-1.14.3-2.06.52-2.42,1.31-.25.54-.19,1.27.18,1.75.43.55,1.19.68,2.83.6,2.2-.1,3.93-.47,5.62-.85,1.6-.36,2.46-.54,4.18-.91,3.16-.68,3.97-.82,4.57-.33.71.59.97,1.91.59,2.94-.53,1.42-1.99,1.51-10.13,3.85-3.42.99-4.01,1.22-5.29,1.18-1-.03-2.02-.22-2.29.26-.26.47.28,1.4.93,1.9.51.41,1.58.93,5.41-.07,2.48-.65,4.97-1.63,8.62-2.42.84-.18,1.79-.36,2.22.13.61.68-.03,2.39-.72,3.4-2.94,4.28-11.14,2.16-11.95,4.96-.17.58,0,1.35.39,1.83.66.79,1.94.79,3.07.65,9.46-1.12,16.12-6.47,16.12-6.47,1.89-1.52,4.49-3.91,7-7.45" style="fill: #2f2521;"/>
        <path d="M343.58,438.15c-1.23,4.02-3.01,9.91-5.09,17.07-6.01,20.62-6.83,25.19-7.34,29.49-.21,1.76-1.09,9.67-.45,19.91.51,8.07,1.86,15.94,3.44,25.15.44,2.56.29,1.53,1.05,5.84,2.04,11.59,2.55,15.71,4.79,21.41.55,1.39,1.05,2.5,1.35,3.14,11.21,1.83,24.03,1.86,37.13-2.4,1.02-.33,2.02-.68,2.99-1.05-.16-3.48-.44-8.72-.9-15.12-.48-6.73-.69-8.18-1.05-13.47-.6-8.97-.9-13.46-.75-19.31.24-9.26,1.44-16.42,2.02-19.59.88-4.75,2.01-8.71,4.27-16.64,4.98-17.47,5.95-15.37,7.49-20.66.15-.53.57-2.01,1.8-3.44.93-1.08,1.97-1.73,2.69-2.1l.15,9.58c-1.96,4.77-4.68,11.69-7.64,20.21-2.74,7.92-4.13,11.96-4.94,16.17-2.19,11.35-1.34,20.95-.9,24.7.51,4.35.86,4.2,1.5,9.73.79,6.95.85,12.59.9,17.07,0,.32,0,.09,0,13.62v3.14c-5.48,2.16-10.28,3.35-13.92,4.04-6.22,1.18-10.75,1.25-18.12,1.35-7.81.11-4.77-.55-11.38-.75-.95-.03-3-.08-5.24-1.2-1.01-.51-1.76-1.08-2.25-1.5-.87-3.43-2.04-8.2-3.29-13.92-1.23-5.62-3.13-14.38-4.79-25.9-1.72-11.93-2.58-18.06-2.25-26.35.09-2.33.4-7.93,1.65-14.97,1.02-5.77,2.28-10.18,4.79-19.01.78-2.76,1.77-6.03,3.74-12.58,1.48-4.9,2.72-8.97,3.59-11.83l4.94.15Z" style="fill: #2f2521;"/>
        <path d="M412.12,565.49v9.23s.1,2.87-1.52,5.74c-1.62,2.87-3.12,13.1-3.12,13.1,0,0,2.92,2.62,4.64,3.24s24.8,9.48,29.41,8.98c0,0-4.49.87,11.73,1.75s21.08-.62,21.08-.62l4.87-2.5v-2.37l-5.24,1.12s-1.5.87-4.49,1-6.49.62-8.23.12-7.73-.75-7.73-.75l-35.43-26.31.05-10.66-6.01-1.08Z" style="fill: #2f2521;"/>
        <path d="M381.44,561.26v9.23s-.1,2.87,1.57,5.74,3.21,13.1,3.21,13.1c0,0-3.01,2.62-4.78,3.24s-25.54,9.48-30.29,8.98c0,0,4.63.87-12.08,1.75s-21.71-.62-21.71-.62l-5.01-2.5v-2.37l5.4,1.12s1.54.87,4.63,1,6.68.62,8.48.12,7.97-.75,7.97-.75l36.49-26.31-.05-10.66,6.19-1.08Z" style="fill: #2f2521;"/>
        <path d="M312.34,597.81s-.9-3.56,1.33-5.72,8.04-6.25,8.04-6.25l7.05-3.43,5.82-2.82,5.57-2.88s3.47-1.44,3.96-2.64,1.73-1.56,1.73-3.36-.46-5.68-.46-5.68h6.16v4.72l-1.24,11.67s-6.68-2.66-7.92-2.66c0,0-1.98,0-1.73,1.32s6.81,5.05,6.81,5.05l3.22,1.92-3.34,2.76s-.87-1.32-2.72-2.4-6.56-3.12-6.56-3.12c0,0-2.97-1.2-4.33.72,0,0-.5,1.44.87,2.04s7.05,3.72,7.05,3.72l2.6,1.68,2.72-.24.37,2.28-9.16,4.84s1.12-1.84-.61-2.8l-4.95-4.21s-5.32-1.08-8.42-.96c0,0-4.46,1.44-5.07,2.76s-2.44,2.99-1.96,4.68-4.82-1-4.82-1Z" style="fill: #2f2521;"/>
        <path d="M375.3,572.99s-5.57,3.24-7.3,3.36-5.2.6-5.2.6c0,0,.74-3.23-.74-3.96s-3.47-2.41-5.07-2.53-5.94,0-5.94,0l-.74,10.95,3.59,2.75s1.73.36.74,1.68-2.23,2.16-3.09,1.68-2.26-1.31-2.26-1.31l-1.95,3.6s.74,1.56-.37,2.4.32,1.99.32,1.99l28.88-17.13-.87-4.08Z" style="fill: #2f2521;"/>
        <path d="M386.22,589.33v7.09s-.15,2.18-1.27,2.95-6.31,3.42-6.31,3.42l-9.78,3-14.6,3.48-10.89,1.8-14.85.96-9.9-.72s-3.09-.84-4.21-2.52-1.78-2.03-2.25-5.22.18-5.11.18-5.11l5.01,4.22s-.83,1.67.28,3.11,8.17,1.92,8.17,1.92l11.14-.12,12.17-1.56,9.12-2.46,11.01-2.89,6.93-2.7,3.84-1.92,1.24-.72.2-2.77,4.78-3.24Z" style="fill: #2f2521;"/>
        <path d="M479.21,602.04s.87-3.56-1.29-5.72-7.81-6.25-7.81-6.25l-6.85-3.43-5.65-2.82-5.41-2.88s-3.36-1.44-3.84-2.64-1.68-1.56-1.68-3.36.45-5.68.45-5.68h-5.98v4.72l1.2,11.67s6.49-2.66,7.69-2.66c0,0,1.92,0,1.68,1.32s-6.61,5.05-6.61,5.05l-3.12,1.92,3.24,2.76s.84-1.32,2.64-2.4,6.37-3.12,6.37-3.12c0,0,2.88-1.2,4.21.72,0,0,.48,1.44-.84,2.04s-6.85,3.72-6.85,3.72l-2.52,1.68-2.64-.24-.36,2.28,8.9,4.84s-1.09-1.84.6-2.8l4.81-4.21s5.17-1.08,8.17-.96c0,0,4.33,1.44,4.93,2.76s2.37,2.99,1.9,4.68,4.68-1,4.68-1Z" style="fill: #2f2521;"/>
        <path d="M418.08,577.23s5.41,3.24,7.09,3.36,5.05.6,5.05.6c0,0-.72-3.23.72-3.96s3.36-2.41,4.93-2.53,5.77,0,5.77,0l.72,10.95-3.48,2.75s-1.68.36-.72,1.68,2.16,2.16,3,1.68,2.19-1.31,2.19-1.31l1.89,3.6s-.72,1.56.36,2.4-.31,1.99-.31,1.99l-28.04-17.13.84-4.08Z" style="fill: #2f2521;"/>
        <path d="M407.48,593.56v7.09s.15,2.18,1.23,2.95,6.13,3.42,6.13,3.42l9.49,3,14.18,3.48,10.57,1.8,14.42.96,9.61-.72s3-.84,4.09-2.52,1.73-2.03,2.19-5.22c.46-3.19-.17-5.11-.17-5.11l-4.87,4.22s.81,1.67-.27,3.11-7.93,1.92-7.93,1.92l-10.81-.12-11.82-1.56-8.85-2.46-10.69-2.89-6.73-2.7-3.72-1.92-1.2-.72-.19-2.77-4.64-3.24Z" style="fill: #2f2521;"/>
      </g>
    </g>
  </g>
  <g id="box">
    <path d="M338.4,281.78s146.7-.51,147.52,2.5c.82,3.02-4.58,2.54-4.58,2.54l-3.55,1.97-137.14-1.15-2.25-5.87Z" style="fill: #2f2521;"/>
    <g>
      <path d="M454.15,404.16l-.56,28.63v5.84h2.92l29.62-16.42c1.76-1.76,1.61-4.84,1.61-4.84v-7.56s-.11-15.35-.11-15.35l-4.93,1.55s.2,8.77.2,9.17.4,11.59-.1,12.69-6.35,4.03-6.35,4.03l-15.62,8.87-2.12,1.31.31-27.94h-4.88Z" style="fill: #2f2521;"/>
      <path d="M453.73,370.29l.62-68.5,31.57-17.52s.35-1.39,1.73,0,.87,3.99.87,3.99l-.95,71.32s-3.72-.37-4.6.51-.17-52.4-.17-52.4l.35-13.88v-2.43l-23.42,13.36s-.35-.52-.52,2.43c-.17,2.95.35,59.79.35,59.79,0,0-5.98,2.31-5.83,3.33Z" style="fill: #2f2521;"/>
      <path d="M301.54,333.77v-28.48s39.11-17.65,39.11-17.65l-2.25-5.87-38.75,17.11s-1.77-.17-2.96,2.77-1.19,5.71-1.19,5.71l.86,53.67s3.13-.77,5.44.77" style="fill: #2f2521;"/>
      <path d="M297.34,391.46v42.85s-.46,2.19,2.37,3.7,2.22,0,2.22,0l151.65.63v-5.84l-149.28.1s-1.27-.81-1.66-2.98-.28-38.44-.28-38.44c0,0-2.58,1.42-5.03,0Z" style="fill: #2f2521;"/>
      <polygon points="301.56 305.29 454.3 307.94 454.36 301.8 310.78 300.05 301.56 305.29" style="fill: #2f2521;"/>
    </g>
  </g>
</svg>