<svg width="714" height="714" viewBox="0 0 714 714" fill="none" xmlns="http://www.w3.org/2000/svg">
<path d="M291.535 235.682C300.951 229.301 314.749 221.465 332.68 215.976C357.348 208.425 378.01 208.916 387.729 209.604C423.313 212.103 447.875 226.624 453.212 229.881C458.058 232.844 475.792 244.099 492.036 265.233C495.838 270.169 504.504 282.092 511.742 299.425C521.693 323.281 523.05 343.3 523.336 348.682C523.621 354.108 524.094 369.191 519.855 388.086C518.73 393.119 515.232 407.524 506.53 424.589C502.54 432.407 495.079 446.777 480.451 461.672C464.573 477.853 448.437 486.341 440.467 490.063C418.886 500.157 400.349 501.924 390.05 502.808C374.565 504.146 362.445 502.915 357.018 502.228C341.408 500.255 330.011 496.373 326.887 495.275C321.3 493.311 307.217 487.948 291.535 476.729C277.3 466.545 268.527 456.389 263.145 450.07C257.451 443.385 250.204 434.781 243.439 421.679C240.047 415.102 233.826 401.67 230.694 383.436C228.695 371.789 226.749 360.516 230.114 346.352C232.229 337.427 235.781 331.18 240.547 322.594C245.456 313.74 250.168 305.235 258.513 297.095C263.752 291.981 274.453 283.092 292.125 277.969" stroke="#2F2521" stroke-width="4" stroke-linecap="round" stroke-linejoin="round"/>
<path d="M244.929 308.207C243.876 305.137 242.242 299.059 243.438 291.553C244.84 282.735 249.338 277.014 251.64 274.158C253.568 271.766 258.406 265.911 266.804 262.475C272.748 260.048 277.791 259.914 284.699 259.744C293.409 259.521 295.105 260.833 300.362 260.494C305.699 260.146 313.268 258.173 322.237 250.552C322.371 254.407 322.246 259.851 320.997 266.215C317.552 283.699 308.189 294.837 305.583 297.783C301.585 302.308 296.06 308.555 286.448 312.446C276.381 316.516 267.188 315.838 262.341 315.427C256.353 314.919 251.498 313.598 248.213 312.491" stroke="#2F2521" stroke-width="4" stroke-linecap="round" stroke-linejoin="round"/>
<path d="M227.632 351.44C225.214 345.451 222.59 340.578 220.349 336.883C216.887 331.162 213.736 327.244 212.933 326.244C210.996 323.861 207.569 319.89 202.714 315.606C198.581 311.955 192.566 307.332 184.516 303.146" stroke="#2F2521" stroke-width="4" stroke-linecap="round" stroke-linejoin="round"/>
<path d="M213.076 320.345C214.12 318.355 215.601 314.847 215.592 310.403C215.584 303.575 212.067 298.747 209.336 294.998C207.64 292.669 204.418 288.34 198.546 285.163C197.457 284.574 193.262 282.396 187.443 281.673C183.266 281.155 182.882 281.959 174.43 281.673C172.654 281.611 169.655 281.477 165.862 280.879C160.552 280.04 158.874 279.12 157.928 278.496C155.679 277.005 154.367 275.068 153.644 273.739C153.671 276.639 153.894 280.575 154.751 285.163C156.848 296.283 161.328 303.896 162.685 306.101C165.532 310.733 168.442 315.454 174.27 319.586C181.374 324.62 188.443 325.655 191.718 326.093C199.795 327.173 206.373 325.673 210.121 324.504" stroke="#2F2521" stroke-width="4" stroke-linecap="round" stroke-linejoin="round"/>
<path d="M498.184 437.066C496.051 437.182 494.445 434.746 487.644 422.715C479.879 408.97 479.246 407.301 478.674 405.007C476.889 397.778 477.086 389.648 477.104 389.094C477.309 382.293 478.549 378.179 475.979 375.867C473.926 374.02 470.642 374.413 469.705 374.52C465.742 374.993 464.93 377.42 461.637 378.554C455.621 380.624 446.91 376.447 445.946 371.824C445.34 368.942 448.133 367.692 447.517 363.756C447.178 361.605 446.116 360.507 443.706 357.259C440.547 352.984 438.664 350.449 437.655 348.289C434.683 341.935 437.361 334.83 439.895 328.11C442.162 322.094 444.054 317.087 447.74 316.454C450.195 316.034 451.284 317.917 459.619 320.934C462.6 322.014 464.118 322.549 465.448 322.505C469.973 322.335 471.302 318.613 475.988 315.552C482.289 311.438 492.142 310.188 499.077 313.312C501.629 314.454 503.29 315.972 507.145 316.677C511.59 317.489 513.651 316.114 515.436 316.454C521.827 317.65 525.111 340.15 523.103 366.059C521.987 380.401 519.881 398.733 504.236 428.989C503.04 431.301 501.281 436.905 498.175 437.075L498.184 437.066Z" fill="#808369" stroke="#2F2521" stroke-width="4" stroke-linecap="round" stroke-linejoin="round"/>
<path d="M283.226 358C281.111 368.71 285.359 377.162 287.019 380.455C288.688 383.766 291.963 390.29 298.979 394.449C305.333 398.225 308.796 396.529 314.437 401.152C319.212 405.07 321.175 409.934 321.728 411.362C323.424 415.718 322.96 418.252 322.898 427.695C322.826 438.682 322.817 444.287 324.352 449.856C325.727 454.854 327.664 461.851 333.099 463.565C337.9 465.082 342.765 461.628 343.309 461.235C344.193 460.592 345.728 459.289 349.726 451.025C353.412 443.394 353.028 442.582 355.269 439.654C358.303 435.683 359.588 436.415 362.56 432.363C363.292 431.363 366.014 427.499 367.228 421.867C368.594 415.521 366.398 414.575 367.808 410.782C369.745 405.606 374.234 406.337 380.928 399.697C383.489 397.162 389.96 390.754 388.22 385.408C387.095 381.936 382.838 379.937 380.053 379.286C374.904 378.081 372.699 381.017 369.557 379.286C366.095 377.367 365.506 371.985 365.184 369.076C364.551 363.292 366.585 362.435 365.764 358.865C363.988 351.083 352.564 347.423 350.895 346.906C343.104 344.523 341.328 347.602 335.437 344.576C331.207 342.399 331.305 340.391 324.352 335.535C320.158 332.608 318.06 331.144 315.311 330.582C308.377 329.154 302.084 333.777 298.104 336.705C294.471 339.382 285.627 345.888 283.235 357.991L283.226 358Z" fill="#808369" stroke="#2F2521" stroke-width="4" stroke-linecap="round" stroke-linejoin="round"/>
<path d="M447.696 229.051C445.527 229.524 445.706 230.488 436.959 241.046C427.106 252.952 424.259 254.88 423.072 260.619C422.733 262.27 421.198 270.597 425.598 274.087C428.418 276.327 432.434 275.604 437.388 274.72C445.643 273.239 445.84 270.535 451.703 270.302C453.203 270.24 457.424 271.249 465.805 273.248C473.123 274.997 473.007 275.068 474.016 275.14C481.424 275.675 490.875 272.105 491.696 267.348C492.348 263.573 489.215 260.476 478.666 250.061C461.101 232.719 454.747 227.516 447.705 229.042L447.696 229.051Z" fill="#808369" stroke="#2F2521" stroke-width="4" stroke-linecap="round" stroke-linejoin="round"/>
</svg>
