<?xml version="1.0" encoding="UTF-8"?>
<svg id="Layer_1" xmlns="http://www.w3.org/2000/svg" version="1.1" viewBox="0 0 160 160">
  <!-- Generator: Adobe Illustrator 29.7.1, SVG Export Plug-In . SVG Version: 2.1.1 Build 8)  -->
  <defs>
    <style>
      .st0 {
        fill: #4c513a;
      }

      .st1 {
        fill: #7f8368;
      }
    </style>
  </defs>
  <g>
    <path class="st0" d="M79.8,159.9C36,159.9.3,124.2.3,80.4S36,1,79.8,1s79.5,35.6,79.5,79.5-35.6,79.5-79.5,79.5ZM29.3,139.3c14.1,12.1,32,18.7,50.4,18.7s10.7-.6,16-1.7V36.2h-47.5l-18.9,103.1h0ZM101.3,154.9c15.3-4.4,29.2-13.8,39.2-26.3l-39.2-56.5v82.8ZM16,36.2c-9.1,13-13.9,28.3-13.9,44.2s7.9,39.8,22.3,54.4l18.1-98.6h-26.5ZM144,123.8c8.7-12.9,13.3-27.9,13.3-43.4s-7.6-38.9-21.4-53.4l-31.9,39.3,40,57.6h0ZM101.3,60.7l30.6-37.7c-8.8-8-19.3-13.9-30.6-17.2v54.9h0ZM95.8,30.6V4.5c-5.2-1.1-10.6-1.7-16-1.7-23,0-44.6,10.1-59.5,27.8h75.4Z"/>
    <path class="st1" d="M79.8,1.3c43.6,0,79.1,35.5,79.1,79.1s-35.5,79.1-79.1,79.1S.6,124.1.6,80.4,36.1,1.3,79.8,1.3M19.6,30.9h76.4V4.2c-5.3-1.1-10.7-1.7-16.3-1.7-24.2,0-45.8,11.1-60.1,28.4M101,61.6l31.4-38.6c-8.8-8.1-19.5-14.2-31.4-17.6v56.2M144,124.4c8.6-12.5,13.6-27.7,13.6-44s-8.3-39.9-21.7-53.9l-32.3,39.7,40.3,58.1M79.8,158.3c5.6,0,11-.6,16.3-1.7V35.9h-48.1l-19,103.5c13.6,11.8,31.4,18.9,50.8,18.9M24.7,135.4l18.2-99.5H15.9C7.1,48.5,1.9,63.9,1.9,80.4s8.7,40.9,22.8,55M101,155.4c16-4.5,29.9-14,39.9-26.7l-39.9-57.5v84.2M79.8.6C35.8.6,0,36.4,0,80.4s35.8,79.8,79.8,79.8,79.8-35.8,79.8-79.8S123.7.6,79.8.6h0ZM21,30.3C35.7,13,57.1,3.1,79.8,3.1s10.5.5,15.7,1.6v25.6H21h0ZM101.7,59.9V6.3c11,3.3,21.3,9.1,29.9,16.8l-29.9,36.8h0ZM104.5,66.3l31.5-38.8c13.6,14.4,21.1,33.2,21.1,53s-4.5,30.2-13,42.9l-39.6-57h0ZM48.5,36.5h47v119.6c-5.1,1.1-10.4,1.6-15.7,1.6-18.4,0-36.1-6.6-50.1-18.5l18.8-102.7h0ZM16.2,36.5h26l-17.9,97.6C10.2,119.6,2.5,100.6,2.5,80.4s4.7-30.9,13.7-43.9h0ZM101.7,154.5v-81.4l38.5,55.5c-9.8,12.3-23.5,21.5-38.5,25.9h0Z"/>
  </g>
  <g>
    <rect class="st0" x="137.8" y="61.5" width="5.6" height="40.4"/>
    <path class="st1" d="M143.1,61.8v39.8h-5v-39.8h5M143.7,61.2h-6.2v41h6.2v-41h0Z"/>
  </g>
  <g>
    <path class="st0" d="M70.2,58.7l.5-.5c6.1-7,7.5-12.7,7.6-12.9v-.2h8.1v.4c-.1,0-2.3,7.3-8.7,13.2h0c0,0-7.4,0-7.4,0h0Z"/>
    <path class="st1" d="M85.9,45.3c0,.3-2.3,7.4-8.5,13.1h-6.6c6.3-7.1,7.7-13,7.7-13.1h7.4M86.7,44.7h-8.7v.5c-.2.2-1.6,5.9-7.7,12.8l-.9,1h8.2l.2-.2c6.5-6,8.7-13.3,8.7-13.4l.2-.8h0Z"/>
  </g>
  <g>
    <path class="st0" d="M65.1,120.1c-5.4,0-10.7-2.5-14.6-6.9-4-4.5-6.2-10.8-6.2-17.7,0-16.9,11.2-29.6,26.1-29.6s20.7,13.8,20.7,25.5-11.7,28.6-26.1,28.6ZM70.5,71.5c-11.9,0-20.5,10.1-20.5,24s5.7,19,15.1,19,20.5-10.3,20.5-23-4-19.9-15.1-19.9Z"/>
    <path class="st1" d="M70.5,66.2c15,0,20.4,13.6,20.4,25.2s-11.6,28.3-25.8,28.3-10.6-2.5-14.3-6.8c-3.9-4.5-6.1-10.7-6.1-17.5,0-16.7,11.1-29.3,25.8-29.3M65.1,114.8c11.5,0,20.8-10.5,20.8-23.3s-4-20.3-15.4-20.3-20.8,10.2-20.8,24.3,5.8,19.3,15.4,19.3M70.5,65.6c-15.1,0-26.4,12.9-26.4,29.9s2.2,13.3,6.2,17.9c3.9,4.4,9.3,7,14.8,7,14.6,0,26.4-13,26.4-28.9s-5.5-25.8-21-25.8h0ZM65.1,114.2c-9.3,0-14.8-9.5-14.8-18.7,0-13.7,8.5-23.7,20.2-23.7s14.8,10.1,14.8,19.6-9.1,22.7-20.2,22.7h0Z"/>
  </g>
</svg>